<?xml version="1.0" encoding="UTF-8" standalone="no"?>
<!-- Created with Inkscape (http://www.inkscape.org/) -->

<svg
   xmlns:dc="http://purl.org/dc/elements/1.1/"
   xmlns:cc="http://creativecommons.org/ns#"
   xmlns:rdf="http://www.w3.org/1999/02/22-rdf-syntax-ns#"
   xmlns:svg="http://www.w3.org/2000/svg"
   xmlns="http://www.w3.org/2000/svg"
   xmlns:sodipodi="http://sodipodi.sourceforge.net/DTD/sodipodi-0.dtd"
   xmlns:inkscape="http://www.inkscape.org/namespaces/inkscape"
   width="1280"
   height="720"
   viewBox="0 0 1280 720.00001"
   id="svg4384"
   version="1.1"
   inkscape:version="0.91 r13725"
   sodipodi:docname="Hand.svg">
  <defs
     id="defs4386" />
  <sodipodi:namedview
     id="base"
     pagecolor="#ffffff"
     bordercolor="#666666"
     borderopacity="1.0"
     inkscape:pageopacity="0.0"
     inkscape:pageshadow="2"
     inkscape:zoom="0.60808421"
     inkscape:cx="662.49397"
     inkscape:cy="365.8494"
     inkscape:document-units="px"
     inkscape:current-layer="layer1"
     showgrid="false"
     units="px"
     inkscape:window-width="1440"
     inkscape:window-height="856"
     inkscape:window-x="0"
     inkscape:window-y="0"
     inkscape:window-maximized="1" />
  <metadata
     id="metadata4389">
    <rdf:RDF>
      <cc:Work
         rdf:about="">
        <dc:format>image/svg+xml</dc:format>
        <dc:type
           rdf:resource="http://purl.org/dc/dcmitype/StillImage" />
        <dc:title></dc:title>
      </cc:Work>
    </rdf:RDF>
  </metadata>
  <g
     inkscape:label="Layer 1"
     inkscape:groupmode="layer"
     id="layer1"
     transform="translate(0,-332.36216)">
    <path
       style="opacity:1;fill:#ffd2c5;fill-opacity:1;fill-rule:nonzero;stroke:none;stroke-width:10;stroke-linecap:butt;stroke-linejoin:miter;stroke-miterlimit:4;stroke-dasharray:none;stroke-dashoffset:0;stroke-opacity:1"
       d="m 863.64648,451.42271 c -37.17729,11.5176 -61.54595,45.11227 -90.35645,69.35414 -21.44027,14.60755 -42.60213,53.72422 -62.87266,55.24856 0.0426,-24.87833 37.44514,-62.26517 17.20755,-91.89572 -8.63322,-31.51839 -42.22595,-16.33245 -64.83,-31.55464 -50.47813,44.49253 -85.66407,102.47558 -127.51172,154.49609 -24.24703,32.8005 -41.31883,70.40214 -65.33593,103.22071 -20.02781,-17.32708 -28.15933,-57.85905 -43.79894,-77.41794 -6.23197,-37.73309 -47.48742,-74.17793 -86.25431,-56.24335 -34.12478,18.3094 -23.4356,63.49793 -0.64262,86.57484 26.68543,29.23077 1.62633,59.50551 -2.666,90.90918 -3.54506,38.76911 26.2621,68.48807 49.86968,95.27883 8.70013,37.27569 23.02928,72.98919 39.26758,107.56445 -13.47228,29.04269 -48.1036,52.10114 -35.40642,84.58764 16.02603,-0.3825 26.56084,17.1288 27.22087,24.7405 32.35486,-16.6771 51.28806,6.7516 75.77465,23.6372 21.53282,0.7586 30.58117,-29.5138 49.87537,-6.6188 29.27042,5.3079 58.3872,2.6369 76.47344,-24.2718 24.97102,-24.2451 51.13978,-47.1883 76.83552,-70.64896 31.77459,-2.17061 56.97111,-25.94349 85.22057,-38.72168 41.23187,-22.92327 84.36609,-45.00817 124.95522,-67.46972 -18.78627,-30.3189 26.97868,-38.28318 40.77343,-59.64649 28.32763,-18.77637 29.45804,-72.63524 -7.76201,-82.22358 -38.00133,-7.49585 -76.76383,9.26319 -102.029,37.61811 -21.80981,6.91527 16.64395,-22.97326 24.81019,-30.29294 35.71238,-35.85227 92.79393,-50.91038 113.76012,-100.38674 9.31728,-33.56482 -32.80817,-58.66104 -60.47656,-39.07422 -20.65443,3.41281 -49.04271,18.87832 -71.94642,30.24418 -15.16797,5.38555 -69.49879,36.17022 -35.29105,6.66894 35.97037,-35.54205 68.01633,-75.16205 93.00733,-119.19665 28.60559,-13.15642 31.01257,-60.22066 0.95687,-73.16883 -13.51681,-5.39563 -27.25744,8.92165 -38.8283,-1.31131 z m -24.12109,20.27734 c -0.26648,1.50211 -3.1139,4.49132 0,0 z M 351.64258,636.6063 c 1.60852,1.40956 0.64646,0.75327 0,0 z m 595.53906,33.11524 c -0.16034,0.24172 -1.12872,0.27884 0,0 z M 470.97852,709.5438 c 0.48348,1.6316 -2.45207,0.60594 0,0 z"
       id="path4960"
       inkscape:connector-curvature="0" />
    <path
       style="opacity:1;fill:black;fill-opacity:1;fill-rule:nonzero;stroke:none;stroke-width:10;stroke-linecap:butt;stroke-linejoin:miter;stroke-miterlimit:4;stroke-dasharray:none;stroke-dashoffset:0;stroke-opacity:1"
       id="path4936"
       d="m 408.36909,1044.3548 c 3.25673,-4.525 6.23961,-9.2322 9.33692,-13.8656 4.31784,-6.7412 8.50829,-13.5608 12.40628,-20.5542 2.82502,-4.7747 5.01848,-9.8705 7.80243,-14.66616 2.08899,-3.7045 4.37663,-7.2942 6.66861,-10.87582 1.52206,-2.59089 3.03741,-5.18134 4.57358,-7.7627 0.76177,-1.30031 1.49702,-2.61589 2.22139,-3.93731 -0.1321,-0.005 0.005,-1.23342 -0.0864,-1.72255 -1.23432,-4.71289 -3.54155,-9.09058 -5.6567,-13.45561 -5.33808,-10.95511 -11.27458,-21.60148 -17.02948,-32.33901 -7.92813,-14.77796 -16.04778,-29.45264 -23.79532,-44.32662 -7.49662,-14.32993 -14.48372,-28.91785 -20.91087,-43.75698 -4.82219,-11.23612 -9.95152,-22.33665 -16.04734,-32.94279 -0.83716,-1.34325 -1.67431,-2.68649 -2.51146,-4.02974 -2.98942,-4.80244 3.80224,-9.03011 6.79166,-4.22768 l 0,0 c 0.88621,1.42529 1.77241,2.85058 2.65862,4.27587 6.2302,10.87427 11.52166,22.22761 16.4499,33.74563 6.3479,14.66552 13.25859,29.07858 20.66481,43.24024 7.73181,14.84665 15.83941,29.49208 23.75118,44.24307 5.80607,10.83387 11.79503,21.57595 17.17815,32.63057 2.52474,5.21435 5.32856,10.47357 6.42332,16.21132 0.13923,2.16303 0.11321,4.30971 -0.86508,6.30006 -0.7707,1.40571 -1.55323,2.80507 -2.36464,4.18777 -1.58301,2.6517 -3.13063,5.3216 -4.70714,7.9789 -2.23198,3.48704 -4.46138,6.98079 -6.49336,10.58888 -2.772,4.74426 -4.90065,9.82146 -7.72904,14.53736 -4.00634,7.1791 -8.30302,14.186 -12.74295,21.1045 -3.09661,4.6291 -6.07532,9.335 -9.33066,13.8562 -3.13786,4.7068 -9.79426,0.2692 -6.6564,-4.4376 z"
       inkscape:connector-curvature="0" />
    <path
       style="opacity:1;fill:black;fill-opacity:1;fill-rule:nonzero;stroke:none;stroke-width:10;stroke-linecap:butt;stroke-linejoin:miter;stroke-miterlimit:4;stroke-dasharray:none;stroke-dashoffset:0;stroke-opacity:1"
       id="path4938"
       d="m 354.70643,784.83495 c -0.27477,-7.13905 -0.31615,-14.27361 -0.19823,-21.41593 0.14159,-12.71567 0.96617,-25.40968 1.49231,-38.11241 0.87574,-14.90552 0.37998,-29.78441 -1.2679,-44.60989 -1.22157,-11.3143 -4.03702,-22.30145 -8.34178,-32.81571 -1.96682,-4.33728 -0.99732,-2.28004 -2.89294,-6.17903 -2.47102,-5.08863 4.72538,-8.58317 7.19639,-3.49454 l 0,0 c 2.03063,4.18644 0.98979,1.97149 3.1045,6.65326 4.55311,11.21002 7.59708,22.90016 8.88518,34.95509 1.68184,15.22856 2.2083,30.51192 1.30969,45.82203 -0.52383,12.63648 -1.34407,25.2643 -1.48655,37.91359 -0.11661,7.0303 -0.0748,14.0526 0.19674,21.07972 0.14412,5.65501 -7.85329,5.85883 -7.99741,0.20382 z"
       inkscape:connector-curvature="0" />
    <path
       style="opacity:1;fill:black;fill-opacity:1;fill-rule:nonzero;stroke:none;stroke-width:10;stroke-linecap:butt;stroke-linejoin:miter;stroke-miterlimit:4;stroke-dasharray:none;stroke-dashoffset:0;stroke-opacity:1"
       id="path4940"
       d="m 339.6239,592.83315 c 6.26544,-0.31908 12.38518,0.34031 18.51141,1.61669 12.15648,2.95597 23.04047,9.2612 33.57638,15.79029 11.28855,7.12749 20.64051,16.52176 28.46206,27.25304 4.88218,6.69956 7.84629,14.36594 10.51911,22.1274 1.42302,4.02615 2.39037,8.1861 3.24518,12.36303 1.13324,5.54218 -6.70459,7.14483 -7.83783,1.60265 l 0,0 c -0.784,-3.83767 -1.6612,-7.66249 -2.9714,-11.36085 -2.41491,-7.01258 -5.01591,-13.9715 -9.42834,-20.03152 -7.17447,-9.9204 -15.81591,-18.56634 -26.20634,-25.15579 -9.74055,-6.05054 -19.78803,-11.95243 -31.01379,-14.7613 -5.5785,-1.19974 -11.14572,-1.73568 -16.85644,-1.44364 -5.65686,0 -5.65686,-8 0,-8 z"
       inkscape:connector-curvature="0" />
    <path
       style="opacity:1;fill:black;fill-opacity:1;fill-rule:nonzero;stroke:none;stroke-width:10;stroke-linecap:butt;stroke-linejoin:miter;stroke-miterlimit:4;stroke-dasharray:none;stroke-dashoffset:0;stroke-opacity:1"
       id="path4942"
       d="m 436.9209,730.32494 c 5.21101,1.81535 11.10338,-0.39922 16.1178,-1.89013 13.97968,-4.87067 26.12162,-13.23497 37.82548,-22.0848 15.4376,-12.1595 28.56888,-26.85896 41.04474,-41.95379 13.199,-15.77849 24.6282,-32.8661 35.32035,-50.40503 9.162,-15.85161 16.52906,-32.63221 24.84409,-48.92409 7.15765,-14.39665 15.61821,-28.07609 24.467,-41.47999 6.5664,-9.5834 12.7465,-19.42603 19.38452,-28.95947 4.82839,-6.96658 9.97236,-13.72106 15.5855,-20.07405 3.3546,-3.89799 6.96206,-7.50161 11.44579,-10.05884 3.64529,-1.78746 7.51153,-2.86495 11.4842,-3.61063 2.96616,-0.4947 5.9581,-0.79621 8.95503,-1.0225 1.86654,-0.17489 3.71068,-0.2226 5.57012,-9e-4 4.18376,1.09249 6.88127,4.18289 9.21714,7.6272 3.96366,5.84033 5.18602,12.68851 6.11,19.54053 1.30067,14.61285 -1.01668,29.17791 -3.35005,43.55979 -3.45011,22.25651 -8.44496,44.2008 -14.48866,65.88366 -5.66827,20.32954 -14.29356,39.60565 -22.70192,58.90134 -2.7091,6.31829 -5.29016,12.68985 -7.86403,19.06395 -2.11815,5.24533 -9.53616,2.24981 -7.41801,-2.99552 l 0,0 c 2.60115,-6.44119 5.20967,-12.87978 7.94811,-19.2643 8.2603,-18.95582 16.75318,-37.8852 22.3299,-57.85449 5.97014,-21.39627 10.8923,-43.05351 14.29808,-65.01714 2.2127,-13.60937 4.45377,-27.38784 3.31656,-41.22147 -0.73984,-5.63788 -1.59139,-11.32766 -4.83335,-16.15421 -1.08777,-1.66657 -2.12692,-3.16785 -3.87988,-4.17835 -1.10433,-0.0918 -2.45551,-0.005 -3.65271,0.0873 -2.70846,0.20377 -5.41242,0.47214 -8.09443,0.91042 -3.13761,0.57629 -6.18079,1.39405 -9.0831,2.75086 -3.76039,1.94714 -6.48087,5.2992 -9.31591,8.35288 -5.41431,6.11698 -10.35817,12.63683 -15.0139,19.34697 -6.60357,9.47673 -12.73982,19.26938 -19.27311,28.79522 -8.68771,13.15367 -16.9941,26.57837 -24.01761,40.70912 -8.40938,16.4697 -15.8462,33.44168 -25.13913,49.45181 -10.89566,17.8625 -22.54089,35.26608 -35.98541,51.33804 -12.87931,15.56745 -26.4409,30.71717 -42.38776,43.23902 -12.48099,9.41995 -25.46313,18.27417 -40.39214,23.37694 -7.2431,2.10657 -15.27833,4.59224 -22.48926,1.07462 -4.85072,-2.91043 -0.73475,-9.77037 4.11596,-6.85995 z"
       inkscape:connector-curvature="0" />
    <path
       style="opacity:1;fill:black;fill-opacity:1;fill-rule:nonzero;stroke:none;stroke-width:10;stroke-linecap:butt;stroke-linejoin:miter;stroke-miterlimit:4;stroke-dasharray:none;stroke-dashoffset:0;stroke-opacity:1"
       id="path4944"
       d="m 657.99764,666.61661 c 6.43013,3.47855 11.88645,8.30938 17.07467,13.3911 2.91831,2.89545 5.38759,6.18274 7.78756,9.50597 3.30928,4.58788 -3.17896,9.26792 -6.48824,4.68004 l 0,0 c -2.13052,-2.95759 -4.31038,-5.89387 -6.90044,-8.47397 -4.73534,-4.64902 -9.69777,-9.08618 -15.58951,-12.2432 -4.85071,-2.91043 -0.73475,-9.77037 4.11596,-6.85994 z"
       inkscape:connector-curvature="0" />
    <path
       style="opacity:1;fill:black;fill-opacity:1;fill-rule:nonzero;stroke:none;stroke-width:10;stroke-linecap:butt;stroke-linejoin:miter;stroke-miterlimit:4;stroke-dasharray:none;stroke-dashoffset:0;stroke-opacity:1"
       id="path4946"
       d="m 681.21572,675.28209 c 10.57624,-11.72074 20.06886,-24.32725 29.76476,-36.74202 14.46361,-19.09023 28.76573,-38.29643 43.28067,-57.35018 16.53549,-20.97001 33.19107,-41.84688 49.2121,-63.19809 10.71852,-13.79831 20.37166,-28.34185 30.96309,-42.22716 4.28049,-5.9754 9.29489,-11.27801 15.57904,-15.22567 2.93592,-1.75889 6.18493,-2.86129 9.53572,-3.55305 2.34634,-0.49675 4.69661,-0.59535 7.07411,-0.36853 5.91634,1.52156 7.12496,6.74976 7.90148,11.98376 0.98403,10.76626 -0.53227,21.59474 -1.50058,32.31709 -1.60453,14.16422 -2.67402,28.53315 -6.53809,42.33597 -0.86466,3.08866 -1.97535,6.10625 -2.96303,9.15939 -8.24686,21.8413 -24.35507,38.98334 -40.34611,55.68219 -17.52041,17.54462 -34.66504,35.41991 -50.37646,54.54523 -9.157,11.63002 -17.66994,23.7136 -26.95299,35.2492 -4.43952,5.45595 -9.0909,10.7403 -13.81505,15.96054 -1.33031,1.46489 -2.66951,2.92205 -4.01775,4.37116 -0.26013,0.27971 -0.52151,0.5583 -0.78311,0.83669 1.26683,-2.37697 1.23219,-2.96595 1.1698,-1.61493 -6.95646,-4.68837 -8.68829,-2.56043 -6.72065,-4.83212 5.42174,-4.24628 11.55837,3.25695 6.13663,7.50322 l 0,0 c -3.68729,2.71455 -0.82411,1.20967 -9.22788,-3.08065 0.0756,-1.71512 0.25483,-2.87586 1.41911,-4.48704 0.24864,-0.2646 0.49704,-0.5294 0.74429,-0.79524 1.31796,-1.41648 2.627,-2.84087 3.92745,-4.27275 4.59931,-5.0818 9.12897,-10.22495 13.45217,-15.53549 9.30616,-11.5591 17.81907,-23.68371 27.01517,-35.32567 15.87572,-19.30757 33.1618,-37.38467 50.86486,-55.09539 14.99355,-15.64112 30.25782,-31.62414 38.15248,-52.02434 0.91772,-2.80372 1.95144,-5.57358 2.75319,-8.41113 3.77577,-13.36324 4.74594,-27.29861 6.32326,-41.01486 0.9033,-10.00228 2.32915,-20.10041 1.5561,-30.14707 -0.0951,-0.7126 -0.17337,-1.42756 -0.28549,-2.13781 -0.23711,-1.50214 -0.61006,-1.61115 0.65778,-1.66536 -0.92543,-0.0641 -2.47655,0.0225 -3.62592,0.27402 -2.20291,0.43593 -4.35043,1.13162 -6.28812,2.26964 -5.33403,3.21212 -9.32189,7.91386 -12.95213,12.84877 -10.5798,13.86175 -20.2058,28.39358 -30.91658,42.1657 -16.03655,21.36864 -32.69989,42.26871 -49.25416,63.25369 -14.53854,19.08434 -28.86198,38.32282 -43.35148,57.44199 -9.86532,12.63169 -19.52753,25.45555 -30.30085,37.37096 -4.67131,5.02832 -11.93813,-1.43634 -7.26683,-6.46466 z"
       inkscape:connector-curvature="0" />
    <path
       style="opacity:1;fill:black;fill-opacity:1;fill-rule:nonzero;stroke:none;stroke-width:10;stroke-linecap:butt;stroke-linejoin:miter;stroke-miterlimit:4;stroke-dasharray:none;stroke-dashoffset:0;stroke-opacity:1"
       id="path4948"
       d="m 717.46637,707.89533 c 3.0927,4.34362 6.54315,8.4229 9.96637,12.49945 4.56634,5.20591 8.76124,10.73799 13.4318,15.84886 2.1688,2.31008 4.43329,4.5243 6.7434,6.68697 -0.51753,-0.31856 1.15849,0.9518 0.83132,0.7672 -2.2416,-1.26477 -3.87368,-1.35811 -5.51919,1.30842 1.56505,-4.19147 4.91148,-7.47163 7.80845,-10.74447 6.91732,-7.60057 14.09582,-14.94956 21.25056,-22.31732 11.31204,-11.38523 23.3988,-21.87725 36.04534,-31.68482 14.70839,-11.48657 31.01119,-20.48376 47.53138,-28.91873 13.20846,-6.84361 27.22081,-11.75401 41.19509,-16.6678 8.63252,-3.06219 17.48405,-5.44337 26.10858,-8.52334 3.74231,-1.18605 7.28394,-2.85836 10.80678,-4.58249 2.16013,-1.09193 4.48135,-1.64456 6.85308,-1.98638 4.00158,-0.6086 5.82119,0.26898 7.69283,4.03287 1.62372,5.49856 0.3495,11.02887 -1.21158,16.36775 -3.58529,10.73734 -9.6245,20.341 -15.9355,29.59663 -8.88335,12.59672 -18.62261,24.53798 -28.81431,36.05294 -12.41941,13.59892 -26.21001,25.78433 -39.55425,38.41491 -11.62458,10.65774 -22.26475,22.32628 -32.95196,33.93127 -7.16386,7.75379 -14.38323,15.45091 -21.93945,22.81048 -4.13441,3.98071 -8.3001,7.92762 -12.46175,11.87881 -1.19208,1.1316 -2.3845,2.26286 -3.57725,3.39373 -0.22833,0.21651 -0.45671,0.43295 -0.68509,0.64938 -6.12431,-5.01907 -7.10351,-4.08259 -3.6562,-8.01464 3.71595,-4.08225 9.39009,1.26461 5.67415,5.34686 l 0,0 c -2.93866,2.92894 -0.0161,3.44801 -7.28885,-3.09051 0.22784,-0.21592 0.45568,-0.43185 0.68347,-0.64784 1.19147,-1.12966 2.3826,-2.25969 3.5734,-3.39008 4.13778,-3.92852 8.27953,-7.85285 12.39057,-11.81036 7.456,-7.25966 14.57412,-14.85794 21.64347,-22.50613 10.80837,-11.73616 21.57362,-23.53205 33.32782,-34.31231 13.17802,-12.47289 26.79745,-24.50511 39.0759,-37.92038 9.97841,-11.2652 19.50657,-22.95422 28.20864,-35.27544 5.86081,-8.57228 11.49758,-17.45722 14.88473,-27.38607 1.10579,-3.64289 2.13144,-7.35719 1.42267,-11.19388 1.31312,0.95238 3.26214,0.63877 0.55407,0.86721 -1.58104,0.21241 -3.11871,0.54656 -4.55667,1.28254 -3.78146,1.85001 -7.59225,3.63099 -11.60307,4.91791 -8.63921,3.07046 -17.48899,5.48762 -26.13804,8.53377 -13.65192,4.80038 -27.34815,9.57933 -40.25307,16.26383 -16.09281,8.21337 -31.98449,16.95727 -46.3129,28.14489 -12.36367,9.57798 -24.16993,19.83645 -35.23057,30.95596 -7.07155,7.28201 -14.16659,14.54538 -21.00672,22.0544 -2.13895,2.41358 -4.5636,4.82317 -6.12733,7.6734 -0.27775,0.60285 -0.33776,1.37365 -0.83324,1.80857 -2.64282,2.3198 -4.93095,1.92341 -7.14245,-0.29065 -2.45944,-2.30331 -4.86961,-4.66229 -7.17584,-7.12519 -4.7322,-5.19985 -9.02,-10.79064 -13.64269,-16.08987 -3.82367,-4.55526 -7.76192,-9.08266 -11.00327,-14.09126 -2.44566,-4.97668 4.47171,-8.49573 6.91737,-3.51905 z"
       inkscape:connector-curvature="0" />
    <path
       style="opacity:1;fill:black;fill-opacity:1;fill-rule:nonzero;stroke:none;stroke-width:10;stroke-linecap:butt;stroke-linejoin:miter;stroke-miterlimit:4;stroke-dasharray:none;stroke-dashoffset:0;stroke-opacity:1"
       id="path4950"
       d="m 804.95566,810.20945 c 1.28613,3.99203 2.32105,8.05499 3.46578,12.08883 1.08029,3.25844 2.16833,6.51429 3.26055,9.76875 1.37244,1.87172 0.20614,-0.18373 -1.88489,-0.40798 -0.0804,-0.008 -0.279,0.0469 -0.24128,-0.0246 0.0174,-0.033 5.48333,-4.58547 5.73531,-4.80482 4.8012,-4.37926 9.85482,-8.44396 15.01337,-12.38963 6.90724,-5.17253 14.51683,-9.26083 22.11831,-13.29621 7.56196,-4.06459 15.39251,-7.58289 23.32138,-10.86062 8.42694,-3.33797 17.10074,-5.98858 25.59883,-9.14018 7.1818,-2.29512 14.10887,-5.2438 21.09065,-8.06159 5.44432,-2.35852 10.93068,-4.61028 16.44991,-6.78712 3.23481,-1.34138 6.58159,-2.35732 9.9851,-3.16267 2.75944,-0.73839 5.26598,-0.70014 7.88327,0.52428 3.35121,2.24005 4.80527,5.87591 6.15819,9.50698 1.44621,4.23033 2.01765,8.68138 2.46874,13.10855 0.73801,5.14419 -0.62988,10.00183 -2.46367,14.74981 -2.6524,5.92428 -6.42385,11.1849 -10.40927,16.26561 -4.72042,5.83032 -10.2097,10.97896 -15.56122,16.21779 -5.7352,5.65671 -11.75099,11.02118 -17.84593,16.28511 -4.95271,4.14482 -9.65896,8.57103 -14.53977,12.79683 -4.39839,3.9651 -9.31698,7.26712 -14.03437,10.82169 -4.63197,3.3657 -9.26839,6.73197 -13.94442,10.03716 -3.04644,2.2346 -5.99648,4.61719 -9.14677,6.70566 -1.62667,0.97385 -3.0551,2.20761 -4.66788,3.21065 -0.56161,0.61482 -1.66413,1.36483 -2.51001,1.96064 -0.33437,0.23463 -0.67187,0.46471 -1.01055,0.69305 -2.15615,1.4438 -0.38196,0.0283 -6.42222,-3.4045 -0.006,-0.18226 -0.0115,-0.36451 -0.0173,-0.54677 -0.16711,-5.65438 7.8294,-5.89071 7.99651,-0.23632 l 0,0 c 0.003,0.11968 0.006,0.23937 0.01,0.35905 -6.44247,-2.82605 -8.03185,-1.47288 -6.02998,-2.81057 0.29121,-0.19624 0.58135,-0.39405 0.86891,-0.5956 0.99649,-0.70102 1.976,-1.42635 2.90197,-2.21969 1.55492,-0.95817 2.90157,-2.19012 4.48983,-3.09706 3.09493,-2.00503 5.92473,-4.41041 8.92313,-6.55333 4.61346,-3.25478 9.18064,-6.58069 13.75031,-9.89567 4.57781,-3.43782 9.34048,-6.64349 13.60948,-10.47878 4.88619,-4.22274 9.58659,-8.65933 14.54473,-12.80112 5.9693,-5.15479 11.86228,-10.40683 17.47846,-15.94718 5.10322,-4.99568 10.34598,-9.89818 14.86563,-15.44186 3.5081,-4.46225 6.84945,-9.05991 9.24926,-14.23491 1.41105,-3.56361 2.54976,-7.15062 1.95635,-11.03319 -0.37874,-3.76071 -0.83058,-7.5493 -2.01827,-11.1549 -0.46092,-1.27719 -0.92648,-2.59753 -1.54255,-3.81067 -0.23602,-0.46476 -0.7578,-0.78054 -0.89241,-1.28412 -0.0261,-0.0977 0.20134,0.0196 0.30202,0.0294 -0.88505,-0.46309 -0.0165,-0.33278 -0.0984,-0.33132 -0.82943,0.0148 -1.64654,0.28595 -2.46346,0.39132 -3.03145,0.71362 -6.01045,1.61845 -8.88874,2.8191 -5.50047,2.16778 -10.96544,4.4162 -16.39175,6.76392 -7.05302,2.84282 -14.04892,5.82422 -21.30222,8.14346 -8.40685,3.11557 -16.98202,5.74986 -25.32451,9.0327 -7.69296,3.17749 -15.28995,6.58985 -22.62589,10.53327 -7.2134,3.82816 -14.44505,7.68925 -21.00884,12.58437 -5.0256,3.8436 -9.94864,7.80235 -14.6236,12.0716 -2.8108,2.44215 -5.47071,5.25958 -9.02003,6.605 -4.50354,0.28238 -5.63742,-1.01691 -7.42331,-4.85872 -1.13232,-3.37395 -2.26481,-6.74791 -3.37238,-10.1301 -1.1118,-3.91789 -2.11473,-7.86448 -3.35914,-11.743 -1.78885,-5.36656 5.80062,-7.89639 7.58947,-2.52982 z"
       inkscape:connector-curvature="0" />
    <path
       style="opacity:1;fill:black;fill-opacity:1;fill-rule:nonzero;stroke:none;stroke-width:10;stroke-linecap:butt;stroke-linejoin:miter;stroke-miterlimit:4;stroke-dasharray:none;stroke-dashoffset:0;stroke-opacity:1"
       id="path4952"
       d="m 841.25308,900.98961 c -3.61278,5.2392 -8.38558,9.5092 -13.05432,13.77717 -9.33661,8.55385 -20.02086,15.36577 -30.78618,21.94233 -14.02253,8.57909 -29.12836,15.09689 -44.21186,21.53231 -15.05029,6.51786 -30.19898,12.78485 -45.45057,18.81396 -12.33307,4.94014 -24.87459,9.32695 -37.38857,13.77836 -6.12857,1.98847 -12.12268,4.32972 -18.08573,6.76071 -2.15485,0.9949 -4.06445,2.39134 -5.97147,3.78725 -1.74791,1.4421 -3.55184,2.8264 -5.26195,4.3111 -0.8928,0.801 -1.73973,1.651 -2.56762,2.5183 -0.20161,0.2111 -0.39926,0.4259 -0.59636,0.6413 -0.20566,0.1852 -0.0828,0.2794 -0.65416,1.6921 -1.44773,2.8914 -2.24334,6.0445 -3.22007,9.1135 -1.32305,5.2063 -3.44475,10.1454 -5.43765,15.1167 -1.99406,5.3567 -4.79283,10.3474 -7.20151,15.5155 -1.82354,3.4127 -3.1199,7.0535 -4.5951,10.6168 -0.83761,1.8007 -1.5243,3.666 -2.18843,5.536 -0.18808,0.5321 -0.36987,1.0663 -0.5487,1.6014 -0.0177,0.053 -0.0349,0.1058 -0.0523,0.1587 -1.76793,5.3735 -9.3672,2.8732 -7.59927,-2.5003 l 0,0 c 0.0204,-0.062 0.0405,-0.1234 0.0611,-0.185 0.19584,-0.5859 0.39482,-1.1707 0.6009,-1.7531 0.712,-2.0031 1.44891,-4.001 2.34112,-5.9322 1.534,-3.6601 2.84929,-7.4169 4.73176,-10.9264 2.35248,-5.0314 5.07125,-9.8958 7.02504,-15.1084 1.92096,-4.7908 3.9746,-9.5467 5.24028,-14.5672 1.04236,-3.271 1.90781,-6.6296 3.43926,-9.7169 0.58328,-1.4125 1.1041,-2.8896 2.13931,-4.0438 0.24073,-0.2638 0.48335,-0.5258 0.72973,-0.7843 1.01753,-1.0648 2.06053,-2.1064 3.1645,-3.08219 1.88475,-1.58683 3.79709,-3.14461 5.72724,-4.67864 2.43264,-1.77805 4.90231,-3.51933 7.67446,-4.73832 6.07495,-2.47634 12.18265,-4.86039 18.42464,-6.88999 12.4269,-4.42 24.88136,-8.77532 37.12858,-13.68076 15.18517,-6.00284 30.26779,-12.2427 45.25239,-18.73254 14.72805,-6.28268 29.48625,-12.62954 43.18129,-21.00132 10.32985,-6.30719 20.59776,-12.81928 29.56048,-21.02164 4.36703,-3.98581 8.84266,-7.95724 12.20284,-12.86805 3.53381,-4.41726 9.78076,0.5803 6.24695,4.99756 z"
       inkscape:connector-curvature="0" />
  </g>
</svg>
