<?xml version="1.0" encoding="UTF-8" standalone="no"?>
<!-- Created with Inkscape (http://www.inkscape.org/) -->

<svg
   xmlns:dc="http://purl.org/dc/elements/1.1/"
   xmlns:cc="http://creativecommons.org/ns#"
   xmlns:rdf="http://www.w3.org/1999/02/22-rdf-syntax-ns#"
   xmlns:svg="http://www.w3.org/2000/svg"
   xmlns="http://www.w3.org/2000/svg"
   xmlns:sodipodi="http://sodipodi.sourceforge.net/DTD/sodipodi-0.dtd"
   xmlns:inkscape="http://www.inkscape.org/namespaces/inkscape"
   width="1280"
   height="720"
   viewBox="0 0 1280 720.00001"
   id="svg4384"
   version="1.1"
   inkscape:version="0.91 r13725"
   sodipodi:docname="Hand.svg">
  <defs
     id="defs4386" />
  <sodipodi:namedview
     id="base"
     pagecolor="#ffffff"
     bordercolor="#666666"
     borderopacity="1.0"
     inkscape:pageopacity="0.0"
     inkscape:pageshadow="2"
     inkscape:zoom="0.60808421"
     inkscape:cx="662.49397"
     inkscape:cy="365.8494"
     inkscape:document-units="px"
     inkscape:current-layer="layer1"
     showgrid="false"
     units="px"
     inkscape:window-width="1440"
     inkscape:window-height="856"
     inkscape:window-x="0"
     inkscape:window-y="0"
     inkscape:window-maximized="1" />
  <metadata
     id="metadata4389">
    <rdf:RDF>
      <cc:Work
         rdf:about="">
        <dc:format>image/svg+xml</dc:format>
        <dc:type
           rdf:resource="http://purl.org/dc/dcmitype/StillImage" />
        <dc:title></dc:title>
      </cc:Work>
    </rdf:RDF>
  </metadata>
  <g
     inkscape:label="Layer 1"
     inkscape:groupmode="layer"
     id="layer1"
     transform="translate(0,-332.36216)">
    <path
       style="opacity:1;fill:#ffd2c5;fill-opacity:1;fill-rule:nonzero;stroke:none;stroke-width:10;stroke-linecap:butt;stroke-linejoin:miter;stroke-miterlimit:4;stroke-dasharray:none;stroke-dashoffset:0;stroke-opacity:1"
       d="m 756.90331,558.81065 c -26.16295,13.61852 -39.78788,41.96576 -57.99042,63.94008 -14.01048,13.7932 -24.49709,45.82404 -39.40563,49.70343 -3.33444,-18.55636 19.49613,-51.49484 0.39665,-70.85064 -10.70207,-22.33365 -33.69582,-6.46484 -52.61028,-14.75681 -31.61899,40.00608 -50.00993,88.00227 -74.17498,132.45384 -13.6417,27.73862 -21.28355,58.08634 -34.75135,85.80732 -17.27829,-10.21008 -28.82589,-39.33261 -43.13408,-51.80059 -9.75248,-27.29256 -45.44601,-48.88558 -71.92597,-30.26714 -22.96785,18.26981 -8.88306,50.51845 11.23509,64.64175 23.85323,18.18528 9.26425,44.15042 10.31281,68.14745 2.60239,29.38799 28.8494,47.51487 50.07747,64.2972 11.53098,26.61753 27.04787,51.30857 43.83432,74.89256 -6.11594,23.4787 -28.8189,45.3582 -14.95552,67.8639 11.89809,-2.4537 22.12283,9.1782 23.64491,14.7646 21.86896,-16.8132 39.15664,-1.9054 59.6999,7.3722 16.15866,-2.3479 18.80949,-26.1449 36.29415,-11.6839 22.54378,0 43.8934,-5.9339 53.7385,-28.4457 15.33917,-21.4573 31.74759,-42.1057 47.73329,-63.07614 23.3991,-5.91794 38.97032,-27.05351 58.30562,-40.40399 27.64298,-22.6718 56.81788,-44.97589 84.04407,-67.21643 -18.11042,-20.06546 14.93672,-32.19641 22.33219,-49.99256 18.582,-17.83363 12.13736,-58.14661 -16.91327,-60.26002 -29.35005,-0.44741 -55.9858,17.29389 -70.98821,41.8554 -15.32687,8.10743 9.30215,-19.38215 14.40092,-25.94505 21.77795,-31.56552 62.30351,-50.51723 71.24247,-90.24633 2.40587,-26.28841 -32.40082,-39.30158 -50.38159,-20.95287 -14.93925,5.33949 -34.01446,20.71256 -49.5548,32.2866 -10.58134,6.0681 -46.92787,36.37418 -25.41252,9.74788 22.01229,-31.36912 40.54657,-65.24798 53.22295,-101.46399 19.54969,-13.68069 14.9763,-49.09996 -9.18682,-54.68804 -10.80893,-2.19434 -19.11743,10.3406 -29.12987,4.27599 z m -15.24229,18.38364 c 0.005,1.15611 -1.71418,3.7703 0,0 z M 400.18279,766.17157 c 1.39013,0.8334 0.58396,0.4742 0,0 z m 448.54633,-55.88868 c -0.0869,0.20194 -0.80391,0.36065 0,0 z m -349.69409,94.12766 c 0.58128,1.15119 -1.74641,0.7836 0,0 z"
       id="path4960"
       inkscape:connector-curvature="0" />
    <path
       style="opacity:1;fill:black;fill-opacity:1;fill-rule:nonzero;stroke:none;stroke-width:10;stroke-linecap:butt;stroke-linejoin:miter;stroke-miterlimit:4;stroke-dasharray:none;stroke-dashoffset:0;stroke-opacity:1"
       id="path4936"
       d="m 497.65269,1062.535 c 1.81614,-3.8147 3.40339,-7.7284 5.08597,-11.6023 2.30749,-5.6108 4.50936,-11.2629 6.46965,-17.0049 1.46043,-3.9426 2.40649,-8.0391 3.83346,-11.9917 1.05642,-3.0449 2.27648,-6.0311 3.50088,-9.0118 0.78437,-2.1379 1.56378,-4.2745 2.35995,-6.4072 0.39208,-1.0726 0.76231,-2.1531 1.12364,-3.2364 -0.0992,0.014 -0.16319,-0.9204 -0.29749,-1.2728 -1.55806,-3.34719 -3.8708,-6.29919 -6.03859,-9.26783 -5.46266,-7.44637 -11.32977,-14.58166 -17.0738,-21.80944 -7.91121,-9.94649 -15.95127,-19.79007 -23.74081,-29.83259 -7.52883,-9.67081 -14.71264,-19.60292 -21.51292,-29.79812 -5.11601,-7.72577 -10.44271,-15.30888 -16.42316,-22.39256 -0.80598,-0.88834 -1.61197,-1.77664 -2.41795,-2.66497 -2.87887,-3.17646 1.61331,-7.24781 4.49219,-4.07134 l 0,0 c 0.85366,0.94285 1.70731,1.88571 2.56098,2.82857 6.11693,7.26544 11.59872,15.01512 16.83196,22.93673 6.7177,10.07647 13.82088,19.88855 21.25953,29.44611 7.77412,10.02428 15.80121,19.84767 23.69658,29.77626 5.79523,7.29271 11.71439,14.49222 17.22411,22.00671 2.58813,3.54656 5.39042,7.08871 6.98309,11.21897 0.3965,1.594 0.66751,3.1982 0.2074,4.8147 -0.38446,1.1525 -0.77861,2.3018 -1.19656,3.4426 -0.82159,2.1914 -1.61432,4.3916 -2.43029,6.5864 -1.19245,2.9021 -2.38207,5.8089 -3.40903,8.7742 -1.42501,3.9127 -2.32527,7.9865 -3.79615,11.8856 -2.01597,5.8952 -4.27172,11.7013 -6.64623,17.4609 -1.68263,3.8707 -3.26696,7.7827 -5.08259,11.5945 -1.70289,3.9342 -7.26669,1.5259 -5.5638,-2.4083 z"
       inkscape:connector-curvature="0" />
    <path
       style="opacity:1;fill:black;fill-opacity:1;fill-rule:nonzero;stroke:none;stroke-width:10;stroke-linecap:butt;stroke-linejoin:miter;stroke-miterlimit:4;stroke-dasharray:none;stroke-dashoffset:0;stroke-opacity:1"
       id="path4938"
       d="m 422.52388,876.28416 c -1.17086,-5.28607 -2.16708,-10.60038 -3.04556,-15.94203 -1.61496,-9.50064 -2.71771,-19.07754 -4.04416,-28.62057 -1.36384,-11.23283 -3.74674,-22.26024 -6.98149,-33.09194 -2.44179,-8.27125 -6.02779,-16.08291 -10.66031,-23.34043 -2.05343,-2.96797 -1.05216,-1.56517 -2.99319,-4.21597 -2.53106,-3.46001 2.36212,-7.03945 4.89317,-3.57944 l 0,0 c 2.0806,2.84686 1.00479,1.33612 3.21511,4.54096 4.91185,7.74271 8.76336,16.04763 11.35497,24.86213 3.31461,11.12766 5.77513,22.45251 7.17665,33.99014 1.31922,9.4933 2.41626,19.02026 4.02157,28.47153 0.86429,5.25794 1.8456,10.48849 2.99894,15.69154 0.87264,4.19716 -5.06307,5.43126 -5.9357,1.23408 z"
       inkscape:connector-curvature="0" />
    <path
       style="opacity:1;fill:black;fill-opacity:1;fill-rule:nonzero;stroke:none;stroke-width:10;stroke-linecap:butt;stroke-linejoin:miter;stroke-miterlimit:4;stroke-dasharray:none;stroke-dashoffset:0;stroke-opacity:1"
       id="path4940"
       d="m 385.29817,735.1582 c 4.62867,-1.08568 9.2811,-1.42206 14.02184,-1.29925 9.46449,0.55927 18.43332,3.78809 27.17288,7.23092 9.38175,3.78722 17.62619,9.52669 24.91038,16.47018 4.54692,4.33496 7.79444,9.65035 10.83763,15.07606 1.60585,2.80955 2.89002,5.78055 4.09258,8.77942 1.59491,3.97921 -4.03253,6.23476 -5.62745,2.25554 l 0,0 c -1.10386,-2.75548 -2.27546,-5.48878 -3.75284,-8.06919 -2.74954,-4.9022 -5.63058,-9.73921 -9.74069,-13.66084 -6.69197,-6.42642 -14.30536,-11.70404 -22.94462,-15.21157 -8.08176,-3.19362 -16.37226,-6.23489 -25.12285,-6.81039 -4.32196,-0.13979 -8.54569,0.21388 -12.7644,1.20435 -4.21805,0.76542 -5.30051,-5.19981 -1.08246,-5.96523 z"
       inkscape:connector-curvature="0" />
    <path
       style="opacity:1;fill:black;fill-opacity:1;fill-rule:nonzero;stroke:none;stroke-width:10;stroke-linecap:butt;stroke-linejoin:miter;stroke-miterlimit:4;stroke-dasharray:none;stroke-dashoffset:0;stroke-opacity:1"
       id="path4942"
       d="m 476.45171,824.51433 c 4.13124,0.64853 8.22526,-1.80005 11.76254,-3.59025 9.76496,-5.52338 17.68687,-13.40316 25.21644,-21.58568 9.86582,-11.15561 17.66825,-23.89306 24.92846,-36.83666 7.70692,-13.55121 13.91706,-27.8391 19.51653,-42.36379 4.68682,-13.05949 7.90955,-26.56882 11.90525,-39.842 3.38915,-11.70339 7.84686,-23.0483 12.63134,-34.24026 3.59953,-8.03439 6.87596,-16.20979 10.53568,-24.21661 2.65767,-5.84796 5.57935,-11.58049 8.9052,-17.07712 1.97393,-3.36045 4.17625,-6.53562 7.17355,-9.0491 2.47626,-1.82607 5.21333,-3.15264 8.07467,-4.24619 2.1448,-0.77022 4.33494,-1.39988 6.539,-1.97412 1.36813,-0.38296 2.73675,-0.66806 4.15326,-0.75434 3.26745,0.24852 5.69702,2.18789 7.90481,4.44009 3.74575,3.81854 5.58383,8.75952 7.19992,13.74372 2.94709,10.72012 3.18992,21.89417 3.39602,32.93379 0.4389,17.06246 -0.3163,34.10113 -1.88894,51.08678 -1.47581,15.92574 -5.29909,31.46612 -8.95794,46.99172 -1.16513,5.07781 -2.22759,10.17803 -3.28433,15.27917 -0.86967,4.19779 -6.80626,2.96789 -5.93659,-1.22991 l 0,0 c 1.06802,-5.15485 2.14187,-10.30876 3.31993,-15.43993 3.59445,-15.25215 7.3659,-30.51606 8.82219,-46.1608 1.55657,-16.762 2.29639,-33.57679 1.86407,-50.41488 -0.19155,-10.44725 -0.38482,-21.02445 -3.10459,-31.18566 -1.31451,-4.10381 -2.71935,-8.23118 -5.78979,-11.39146 -1.03661,-1.09549 -2.01458,-2.07432 -3.45841,-2.59062 -0.83588,0.081 -1.83163,0.32856 -2.71185,0.55931 -1.992,0.51841 -3.9719,1.08439 -5.91244,1.77409 -2.26161,0.85426 -4.42012,1.87579 -6.40064,3.28021 -2.54048,1.9607 -4.11546,4.82827 -5.81623,7.48886 -3.20952,5.29374 -6.01374,10.82423 -8.57736,16.45763 -3.6417,7.95987 -6.89219,16.09207 -10.47484,24.07905 -4.69822,10.98359 -9.07544,22.11768 -12.40053,33.60466 -4.04201,13.41853 -7.29086,27.08001 -12.05386,40.27541 -5.70744,14.7935 -12.0359,29.34624 -19.88619,43.14949 -7.49709,13.35059 -15.55946,26.48201 -25.75598,37.97671 -8.0319,8.7128 -16.51402,17.07156 -26.95544,22.89647 -5.1158,2.55082 -10.77097,5.4915 -16.62378,3.84426 -4.01077,-1.51382 -1.86987,-7.18588 2.14087,-5.67206 z"
       inkscape:connector-curvature="0" />
    <path
       style="opacity:1;fill:black;fill-opacity:1;fill-rule:nonzero;stroke:none;stroke-width:10;stroke-linecap:butt;stroke-linejoin:miter;stroke-miterlimit:4;stroke-dasharray:none;stroke-dashoffset:0;stroke-opacity:1"
       id="path4944"
       d="m 632.67803,747.09658 c 5.26533,1.72374 9.9875,4.58759 14.54372,7.67478 2.56781,1.76413 4.85384,3.8812 7.09304,6.03444 3.08835,2.97319 -1.11637,7.34079 -4.20473,4.36759 l 0,0 c -1.98882,-1.91706 -4.01154,-3.81155 -6.29193,-5.38496 -4.15997,-2.82582 -8.46061,-5.46294 -13.28097,-7.01979 -4.01075,-1.51383 -1.86988,-7.1859 2.14087,-5.67206 z"
       inkscape:connector-curvature="0" />
    <path
       style="opacity:1;fill:black;fill-opacity:1;fill-rule:nonzero;stroke:none;stroke-width:10;stroke-linecap:butt;stroke-linejoin:miter;stroke-miterlimit:4;stroke-dasharray:none;stroke-dashoffset:0;stroke-opacity:1"
       id="path4946"
       d="m 651.16318,750.41643 c 6.3003,-10.17065 11.67274,-20.85516 17.2227,-31.4242 8.20178,-16.19174 16.26745,-32.44809 24.51244,-48.61957 9.49233,-17.87373 19.08681,-35.69427 28.14396,-53.78264 6.12527,-11.73905 11.35531,-23.88964 17.37405,-35.67637 2.38324,-5.03476 5.40475,-9.66715 9.55641,-13.46103 1.95118,-1.70877 4.22465,-2.9704 6.62958,-3.9396 1.68234,-0.68789 3.42148,-1.07942 5.22496,-1.23198 4.61742,0.33403 6.22605,4.06891 7.51327,7.86659 2.1905,7.89475 2.52505,16.17421 3.25384,24.30038 0.72011,10.7787 1.86687,21.63765 0.85325,32.45261 -0.22682,2.42006 -0.64671,4.82042 -0.97006,7.23065 -3.194,17.40189 -12.88567,32.36348 -22.54997,46.97875 -10.69021,15.45285 -21.05549,31.10142 -30.18295,47.48816 -5.25431,9.91097 -9.96701,20.07301 -15.32809,29.93062 -2.57211,4.66896 -5.32542,9.23861 -8.14165,13.77032 -0.79374,1.27229 -1.59515,2.54004 -2.40439,3.80299 -0.15613,0.24377 -0.31333,0.48687 -0.47072,0.72985 0.62299,-1.9438 0.51746,-2.3783 0.65375,-1.36246 -5.82148,-2.55463 -6.82489,-0.7336 -5.6651,-2.69374 3.46818,-3.89985 9.05923,0.86463 5.59104,4.76448 l 0,0 c -2.38213,2.52303 -0.45082,1.01351 -7.29763,-1.04849 -0.17569,-1.28912 -0.19911,-2.17887 0.45104,-3.5378 0.14959,-0.23093 0.29898,-0.46199 0.44738,-0.69368 0.79107,-1.23454 1.57444,-2.47376 2.35038,-3.7174 2.74187,-4.41159 5.42352,-8.85949 7.92858,-13.40428 5.37512,-9.87827 10.08224,-20.07089 15.36409,-29.99605 9.22531,-16.54487 19.66876,-32.36306 30.4727,-47.96447 9.06362,-13.69161 18.28284,-27.67477 21.40922,-43.95445 0.30493,-2.21478 0.70095,-4.42 0.91483,-6.64432 1.00725,-10.47523 -0.1549,-20.99745 -0.83468,-31.43845 -0.67984,-7.58045 -0.98301,-15.30307 -2.91882,-22.68981 -0.16731,-0.51848 -0.32244,-1.041 -0.50215,-1.55543 -0.38005,-1.08799 -0.6729,-1.11881 0.26515,-1.33078 -0.69873,0.0774 -1.84363,0.35182 -2.66661,0.69494 -1.58361,0.62312 -3.09079,1.43244 -4.38166,2.54319 -3.5427,3.11687 -5.88008,7.16232 -7.91925,11.33326 -6.01325,11.76759 -11.22464,23.90577 -17.34769,35.62423 -9.06636,18.10347 -18.66349,35.94235 -28.1678,53.8298 -8.25844,16.19748 -16.33565,32.48078 -24.5528,48.6976 -5.64695,10.75371 -11.11643,21.62324 -17.53734,31.96572 -2.80281,4.38144 -9.09605,0.54431 -6.29326,-3.83714 z"
       inkscape:connector-curvature="0" />
    <path
       style="opacity:1;fill:black;fill-opacity:1;fill-rule:nonzero;stroke:none;stroke-width:10;stroke-linecap:butt;stroke-linejoin:miter;stroke-miterlimit:4;stroke-dasharray:none;stroke-dashoffset:0;stroke-opacity:1"
       id="path4948"
       d="m 682.60642,769.8296 c 2.89381,2.82037 6.01861,5.39522 9.12273,7.97172 4.10931,3.26395 7.98578,6.82136 12.15994,10.00033 1.92974,1.42907 3.91787,2.7737 5.93304,4.07372 -0.42901,-0.16751 0.99262,0.55295 0.72368,0.45958 -1.84259,-0.63977 -3.07218,-0.48854 -3.93836,1.72242 0.59985,-3.33715 2.65129,-6.23581 4.36858,-9.06819 4.12951,-6.60335 8.48781,-13.05447 12.82584,-19.51635 6.89435,-10.02004 14.48722,-19.47889 22.59012,-28.5031 9.41313,-10.55516 20.35198,-19.46985 31.52899,-27.99472 8.92294,-6.89017 18.70686,-12.44761 28.46196,-18.00242 6.02253,-3.45138 12.30051,-6.4246 18.31467,-9.88816 2.62998,-1.39074 5.04454,-3.11691 7.43806,-4.87918 1.46296,-1.10648 3.11901,-1.83264 4.84125,-2.40843 2.90144,-0.99525 4.37699,-0.58709 6.28186,1.96622 1.95473,3.88031 1.75289,8.17643 1.31127,12.3686 -1.22053,8.49145 -4.42424,16.4696 -7.87769,24.22502 -4.91947,10.59477 -10.56583,20.81661 -16.60724,30.78179 -7.42053,11.82052 -16.05475,22.77258 -24.29591,33.9962 -7.22582,9.51988 -13.58086,19.66027 -19.97956,29.75963 -4.29261,6.75096 -8.63428,13.46719 -13.27279,19.97728 -2.54421,3.52765 -5.11632,7.03433 -7.68484,10.54365 -0.73576,1.00508 -1.47183,2.00995 -2.20818,3.01457 -0.14097,0.19234 -0.28197,0.38463 -0.42298,0.57691 -5.24573,-2.91381 -5.84916,-2.08303 -3.8107,-5.48143 2.21844,-3.54674 7.17286,-0.32759 4.95442,3.21916 l 0,0 c -1.79491,2.58159 0.45453,2.57319 -5.85312,-1.31822 0.14067,-0.19183 0.28134,-0.38366 0.42197,-0.57554 0.73557,-1.00355 1.47084,-2.00733 2.20581,-3.01134 2.55379,-3.48919 5.11111,-6.97578 7.64103,-10.48297 4.5773,-6.42205 8.85684,-13.05087 13.09327,-19.7103 6.4713,-10.21356 12.90235,-20.46583 20.20826,-30.09461 8.13855,-11.08352 16.66587,-21.89821 24.00614,-33.56273 5.91615,-9.75008 11.43924,-19.75527 16.26082,-30.12008 3.21023,-7.18496 6.2111,-14.57275 7.39329,-22.43453 0.33162,-2.86596 0.59382,-5.77432 -0.4538,-8.53926 1.10799,0.53248 2.51886,0.0349 0.53047,0.57167 -1.15016,0.37231 -2.25151,0.82953 -3.22414,1.57288 -2.56935,1.89113 -5.16989,3.73475 -7.98644,5.23705 -6.0264,3.45845 -12.29821,6.45825 -18.33522,9.89992 -9.53008,5.42662 -19.09608,10.84327 -27.81421,17.57373 -10.88832,8.30181 -21.55488,16.972 -30.72513,27.25283 -7.92304,8.81476 -15.33835,18.06149 -22.0812,27.84939 -4.28761,6.38668 -8.59525,12.76265 -12.67959,19.2873 -1.26835,2.08911 -2.75025,4.2139 -3.53059,6.55078 -0.12554,0.48709 -0.066,1.06997 -0.37659,1.4613 -1.65674,2.08736 -3.41653,2.10139 -5.36513,0.74971 -2.14554,-1.38469 -4.26188,-2.81755 -6.31478,-4.34197 -4.23216,-3.23698 -8.18585,-6.82559 -12.34979,-10.1515 -3.4675,-2.87927 -7.01667,-5.72227 -10.11128,-9.01837 -2.49701,-3.37996 2.18479,-6.93991 4.68179,-3.55996 z"
       inkscape:connector-curvature="0" />
    <path
       style="opacity:1;fill:black;fill-opacity:1;fill-rule:nonzero;stroke:none;stroke-width:10;stroke-linecap:butt;stroke-linejoin:miter;stroke-miterlimit:4;stroke-dasharray:none;stroke-dashoffset:0;stroke-opacity:1"
       id="path4950"
       d="m 761.687,834.28245 c 1.49915,2.80265 2.8206,5.69217 4.21998,8.54513 1.24642,2.28349 2.49826,4.564 3.75303,6.84292 1.27662,1.20995 0.12885,-0.16489 -1.46067,-0.0491 -0.061,0.006 -0.2017,0.0727 -0.18325,0.0143 0.008,-0.027 3.46821,-4.1611 3.62641,-4.35876 2.98748,-3.91505 6.20574,-7.6297 9.51836,-11.26979 4.45053,-4.79152 9.57145,-8.86962 14.6935,-12.90715 5.08863,-4.05397 10.45145,-7.73693 15.92013,-11.25382 5.83193,-3.6292 11.94093,-6.77927 17.85112,-10.27913 5.04458,-2.68312 9.81079,-5.8191 14.63551,-8.86489 3.74044,-2.49529 7.52668,-4.91667 11.34757,-7.28664 2.23055,-1.43789 4.58862,-2.64827 7.0175,-3.70931 1.95766,-0.92395 3.83186,-1.23459 5.94911,-0.67575 2.80194,1.21687 4.37813,3.73121 5.87825,6.25567 1.65077,2.95868 2.67913,6.20029 3.61452,9.44038 1.24634,3.73593 0.88365,7.54313 0.15872,11.33161 -1.17617,4.77635 -3.27656,9.20924 -5.56084,13.53695 -2.7309,4.98611 -6.12735,9.56795 -9.40888,14.19841 -3.51107,4.99396 -7.27091,9.80798 -11.10337,14.55773 -3.13218,3.76074 -6.04251,7.69796 -9.11011,11.50934 -2.74317,3.55174 -5.96394,6.67943 -9.00052,9.9682 -2.99843,3.13639 -6.00011,6.2738 -9.03959,9.37103 -1.96923,2.07845 -3.84655,4.2542 -5.91298,6.23773 -1.08118,0.94625 -1.97934,2.05949 -3.0462,3.02563 -0.33558,0.53443 -1.05619,1.24286 -1.60631,1.80158 -0.21758,0.2202 -0.43811,0.43742 -0.65974,0.65352 -1.41239,1.36831 -0.28099,0.0727 -5.2494,-1.66962 -0.0293,-0.13505 -0.0577,-0.27028 -0.0869,-0.40534 -0.8897,-4.1936 5.04095,-5.4518 5.93064,-1.2582 l 0,0 c 0.018,0.089 0.037,0.17764 0.056,0.26637 -5.18623,-1.23552 -6.18826,-0.0115 -4.87656,-1.27979 0.19058,-0.18574 0.38016,-0.37249 0.56731,-0.56169 0.6482,-0.65755 1.28042,-1.33093 1.86353,-2.04778 1.02977,-0.92485 1.86721,-2.02568 2.92879,-2.91684 2.03646,-1.91382 3.82103,-4.0903 5.76685,-6.09388 2.99964,-3.05117 5.95515,-6.14913 8.91399,-9.23926 2.9483,-3.18284 6.06585,-6.21758 8.7301,-9.65501 3.07203,-3.80984 5.97659,-7.75399 9.11323,-11.51321 3.75354,-4.65138 7.43702,-9.36495 10.87508,-14.25604 3.12928,-4.41556 6.37522,-8.78051 8.9952,-13.52572 2.01205,-3.80195 3.88144,-7.68232 4.97065,-11.86579 0.56996,-2.84814 0.9337,-5.67689 -0.0341,-8.49164 -0.79126,-2.75294 -1.64079,-5.51678 -3.01427,-8.04461 -0.5165,-0.88997 -1.0423,-1.81149 -1.66583,-2.63271 -0.23887,-0.31462 -0.67067,-0.47947 -0.83916,-0.83676 -0.0327,-0.0693 0.15277,-0.0127 0.22917,-0.019 -0.7226,-0.22556 -0.0573,-0.24592 -0.11821,-0.23374 -0.61646,0.12322 -1.18905,0.43601 -1.78393,0.62511 -2.16386,0.94229 -4.26273,2.02006 -6.24648,3.30479 -3.80811,2.36067 -7.57887,4.77667 -11.30734,7.26147 -4.87446,3.07409 -9.68756,6.24378 -14.7822,8.95455 -5.84703,3.46065 -11.88469,6.58521 -17.6611,10.16188 -5.30635,3.41021 -10.50934,6.98259 -15.44583,10.91562 -4.86071,3.8305 -9.73058,7.68804 -13.96254,12.22624 -3.22729,3.54599 -6.36252,7.16397 -9.27075,10.97992 -1.76544,2.20131 -3.3676,4.66204 -5.83211,6.14551 -3.31987,0.81992 -4.34116,0.005 -6.19264,-2.61848 -1.30084,-2.36259 -2.6018,-4.72516 -3.8853,-7.09723 -1.35915,-2.77095 -2.64099,-5.57804 -4.09368,-8.30169 -2.06,-3.75954 3.25681,-6.67284 5.31681,-2.91328 z"
       inkscape:connector-curvature="0" />
    <path
       style="opacity:1;fill:black;fill-opacity:1;fill-rule:nonzero;stroke:none;stroke-width:10;stroke-linecap:butt;stroke-linejoin:miter;stroke-miterlimit:4;stroke-dasharray:none;stroke-dashoffset:0;stroke-opacity:1"
       id="path4952"
       d="m 801.03556,897.06163 c -1.98498,4.39547 -4.96606,8.2252 -7.86984,12.03934 -5.80447,7.64153 -12.8495,14.16653 -19.98684,20.52699 -9.29513,8.29439 -19.67692,15.19834 -30.05322,22.03785 -10.34037,6.89648 -20.78808,13.61923 -31.34468,20.17851 -8.52776,5.35238 -17.28581,10.32036 -26.01459,15.33288 -4.30072,2.31199 -8.45346,4.86876 -12.57089,7.48827 -1.47216,1.03337 -2.70712,2.33303 -3.9402,3.63194 -1.10822,1.31177 -2.26602,2.58809 -3.34028,3.92659 -0.55733,0.7181 -1.07383,1.4665 -1.5738,2.2252 -0.12176,0.1847 -0.24008,0.3716 -0.3579,0.5589 -0.1283,0.1659 -0.024,0.2195 -0.25884,1.3502 -0.68827,2.3519 -0.85487,4.8107 -1.16792,7.2312 -0.28207,4.0612 -1.19583,8.031 -2.00919,12.0076 -0.76207,4.2641 -2.1737,8.3641 -3.27045,12.5437 -0.89797,2.7913 -1.37197,5.6815 -1.98982,8.5381 -0.38091,1.4561 -0.64055,2.9398 -0.88274,4.4241 -0.0683,0.4222 -0.13151,0.8451 -0.19246,1.2682 -0.006,0.042 -0.0118,0.084 -0.0175,0.1255 -0.59119,4.246 -6.59591,3.4099 -6.00474,-0.8361 l 0,0 c 0.007,-0.049 0.0134,-0.098 0.0206,-0.1462 0.0668,-0.4634 0.13598,-0.9264 0.21085,-1.3886 0.25986,-1.59 0.53903,-3.1793 0.94298,-4.74 0.64859,-2.9367 1.12102,-5.916 2.04983,-8.7876 1.07334,-4.07 2.44241,-8.0651 3.19395,-12.2161 0.78414,-3.8323 1.67194,-7.6563 1.93638,-11.5713 0.33465,-2.5799 0.52552,-5.2015 1.24971,-7.7108 0.24381,-1.1322 0.4323,-2.304 1.04803,-3.3047 0.14382,-0.2293 0.28928,-0.4574 0.43801,-0.6836 0.61465,-0.9316 1.25142,-1.84939 1.94257,-2.72638 1.19066,-1.4382 2.40583,-2.85855 3.63747,-4.26359 1.57332,-1.65498 3.17924,-3.28751 5.08137,-4.57148 4.19474,-2.66854 8.42637,-5.27265 12.80612,-7.63057 8.6681,-4.97724 17.36548,-9.91001 25.83392,-15.22492 10.51064,-6.5307 20.91274,-13.22427 31.20793,-20.09098 10.13192,-6.67753 20.27763,-13.40698 29.35662,-21.50248 6.84906,-6.10068 13.62423,-12.34577 19.19747,-19.67462 2.71697,-3.56292 5.51688,-7.12982 7.35793,-11.24624 2.03732,-3.7719 7.37158,-0.89071 5.33427,2.88119 z"
       inkscape:connector-curvature="0" />
  </g>
</svg>
